<svg width="57" height="20" stroke="none" viewBox="0 0 57 20" xmlns="http://www.w3.org/2000/svg">
    <g clip-path="url(#clip0)">
        <path fill-rule="evenodd" clip-rule="evenodd"
              d="M20.027 7.99889V0.574473L17.3993 3.09001C15.5714 1.38803 13.082 0.33783 10.3505 0.33783C4.63467 0.33783 0 4.52812 0 9.99999C0 15.4719 4.63467 19.6622 10.3505 19.6622C13.9292 19.6622 17.0962 17.8872 18.8987 15.1514L15.912 13.3767C14.7532 15.1266 12.6936 16.3099 10.3505 16.3099C6.71984 16.3099 3.78484 13.5001 3.78484 9.99999C3.78484 6.52458 6.71984 3.71456 10.3505 3.71456C12.1229 3.71456 13.7328 4.3784 14.9135 5.46974L12.2896 7.98156L20.027 7.99889Z"/>
        <path fill-rule="evenodd" clip-rule="evenodd"
              d="M23.6544 14.4853C24.9066 15.6437 26.7325 16.3337 28.793 16.3337C32.4188 16.3337 34.0626 12.6616 30.0453 11.6267L26.7063 10.8132C23.8629 10.0984 21.9068 8.27474 21.9068 5.68707C21.8282 2.72979 25.1152 0.26523 28.793 0.339464C31.3234 0.339464 33.697 1.10314 35.4711 2.40935L33.4102 5.1696C32.1582 4.20859 30.6189 3.71555 28.793 3.71555C25.7411 3.71555 24.2021 6.6484 27.6456 7.58467L30.7754 8.34897C33.7755 9.06347 36.2015 10.8871 36.2015 13.8939C36.2794 17.0977 32.8363 19.7346 28.793 19.6606C26.0017 19.6606 23.4455 18.7735 21.5676 17.27L23.6544 14.4853Z"/>
        <path fill-rule="evenodd" clip-rule="evenodd"
              d="M54.0785 6.6477C52.9453 4.87303 50.9303 3.71456 48.6383 3.71456C45.0871 3.71456 42.2158 6.52458 42.2158 9.99999C42.2158 13.4998 45.0871 16.3099 48.6383 16.3099C50.9303 16.3099 52.9453 15.127 54.0785 13.3767L57 15.1514C55.2369 17.8872 52.1393 19.6622 48.6383 19.6622C43.0471 19.6622 38.5135 15.4719 38.5135 9.99999C38.5135 4.52812 43.0471 0.33783 48.6383 0.33783C52.1393 0.33783 55.2369 2.13694 57 4.84859L54.0785 6.6477Z"/>
        <path fill-rule="evenodd" clip-rule="evenodd"
              d="M48.527 7.02701C46.8253 7.02701 45.4459 8.35801 45.4459 9.99998C45.4459 11.642 46.8253 12.973 48.527 12.973C50.2287 12.973 51.6081 11.642 51.6081 9.99998C51.6081 8.35801 50.2287 7.02701 48.527 7.02701Z"/>
    </g>
    <defs>
        <clipPath id="clip0">
            <rect width="57" height="20" fill="white"/>
        </clipPath>
    </defs>
</svg>