<svg width="40" height="40" viewBox="0 0 40 40" xmlns="http://www.w3.org/2000/svg">
    <mask id="path-1-inside-1" fill="white">
        <path fill-rule="evenodd" clip-rule="evenodd" d="M25.2691 9.21566C22.2402 9.98608 20 12.7314 20 16C20 19.866 23.134 23 27 23C28.9403 23 30.6962 22.2106 31.9641 20.9354C31.4868 27.1256 26.3126 32 20 32C13.3726 32 8 26.6274 8 20C8 13.3726 13.3726 8 20 8C21.8903 8 23.6785 8.43707 25.2691 9.21566Z" stroke="none"/>
    </mask>
    <path d="M25.2691 9.21566L25.7621 11.1539L31.0368 9.81222L26.1484 7.41932L25.2691 9.21566ZM31.9641 20.9354L33.9582 21.0891L34.3757 15.6732L30.5458 19.5252L31.9641 20.9354ZM22 16C22 13.668 23.5983 11.7043 25.7621 11.1539L24.776 7.27738C20.8822 8.26784 18 11.7948 18 16H22ZM27 21C24.2386 21 22 18.7614 22 16H18C18 20.9706 22.0294 25 27 25V21ZM30.5458 19.5252C29.6379 20.4383 28.3864 21 27 21V25C29.4942 25 31.7545 23.9828 33.3824 22.3455L30.5458 19.5252ZM29.97 20.7816C29.5724 25.9381 25.2596 30 20 30V34C27.3657 34 33.4012 28.3131 33.9582 21.0891L29.97 20.7816ZM20 30C14.4772 30 10 25.5228 10 20H6C6 27.732 12.268 34 20 34V30ZM10 20C10 14.4772 14.4772 10 20 10V6C12.268 6 6 12.268 6 20H10ZM20 10C21.5789 10 23.0669 10.3645 24.3897 11.012L26.1484 7.41932C24.2901 6.50968 22.2017 6 20 6V10Z" stroke="none" mask="url(#path-1-inside-1)"/>
</svg>
