<svg width="40" height="40" viewBox="0 0 40 40" xmlns="http://www.w3.org/2000/svg" class="svg-fill">
	<path  fill-rule="evenodd" clip-rule="evenodd" d="M27 19C27 23.4183 23.4183 27 19 27C14.5817 27 11 23.4183 11 19C11 14.5817 14.5817 11 19 11C23.4183 11 27 14.5817 27 19ZM25.3287 26.7429C23.6049 28.1536 21.4013 29 19 29C13.4772 29 9 24.5228 9 19C9 13.4772 13.4772 9 19 9C24.5228 9 29 13.4772 29 19C29 21.4013 28.1536 23.6049 26.7429 25.3287L32.2071 30.7929L30.7929 32.2071L25.3287 26.7429Z" stroke="none"/>
</svg>
