<svg width="134" height="32" viewBox="0 0 134 32" fill="none" xmlns="http://www.w3.org/2000/svg">
    <g clip-path="url(#clip0)">
        <path fill-rule="evenodd" clip-rule="evenodd" d="M20.027 13.9989V6.57447L17.3993 9.09001C15.5714 7.38803 13.082 6.33783 10.3505 6.33783C4.63467 6.33783 0 10.5281 0 16C0 21.4719 4.63467 25.6622 10.3505 25.6622C13.9292 25.6622 17.0962 23.8872 18.8987 21.1514L15.912 19.3767C14.7532 21.1266 12.6936 22.3099 10.3505 22.3099C6.71984 22.3099 3.78484 19.5001 3.78484 16C3.78484 12.5246 6.71984 9.71456 10.3505 9.71456C12.1229 9.71456 13.7328 10.3784 14.9135 11.4697L12.2896 13.9816L20.027 13.9989Z" fill="#0D3F67"/>
        <path fill-rule="evenodd" clip-rule="evenodd" d="M23.6544 20.4853C24.9066 21.6437 26.7325 22.3337 28.793 22.3337C32.4188 22.3337 34.0626 18.6616 30.0453 17.6267L26.7063 16.8132C23.8629 16.0984 21.9068 14.2747 21.9068 11.6871C21.8282 8.72979 25.1152 6.26523 28.793 6.33946C31.3234 6.33946 33.697 7.10314 35.4711 8.40935L33.4102 11.1696C32.1582 10.2086 30.6189 9.71555 28.793 9.71555C25.7411 9.71555 24.2021 12.6484 27.6456 13.5847L30.7754 14.349C33.7755 15.0635 36.2015 16.8871 36.2015 19.8939C36.2794 23.0977 32.8363 25.7346 28.793 25.6606C26.0017 25.6606 23.4455 24.7735 21.5676 23.27L23.6544 20.4853Z" fill="#0D3F67"/>
        <path fill-rule="evenodd" clip-rule="evenodd" d="M54.0783 12.6477C52.9452 10.873 50.9302 9.71456 48.6382 9.71456C45.087 9.71456 42.2157 12.5246 42.2157 16C42.2157 19.4998 45.087 22.3099 48.6382 22.3099C50.9302 22.3099 52.9452 21.127 54.0783 19.3767L56.9999 21.1514C55.2368 23.8872 52.1392 25.6622 48.6382 25.6622C43.047 25.6622 38.5134 21.4719 38.5134 16C38.5134 10.5281 43.047 6.33783 48.6382 6.33783C52.1392 6.33783 55.2368 8.13694 56.9999 10.8486L54.0783 12.6477Z" fill="#0D3F67"/>
        <path fill-rule="evenodd" clip-rule="evenodd" d="M48.5271 13.027C46.8254 13.027 45.446 14.358 45.446 16C45.446 17.642 46.8254 18.973 48.5271 18.973C50.2288 18.973 51.6082 17.642 51.6082 16C51.6082 14.358 50.2288 13.027 48.5271 13.027Z" fill="#0D3F67"/>
    </g>
    <path d="M68.1924 25V13.0029H68.3066L76.876 25H80.0498V6.68066H76.3809V18.6143H76.2793L67.7227 6.68066H64.5234V25H68.1924ZM88.9558 25.2412C93.1961 25.2412 95.8494 22.5371 95.8494 18.0049C95.8494 13.5234 93.1707 10.7812 88.9558 10.7812C84.7537 10.7812 82.0623 13.5361 82.0623 18.0049C82.0623 22.5244 84.7156 25.2412 88.9558 25.2412ZM88.9558 22.3848C87.0007 22.3848 85.8201 20.7852 85.8201 18.0049C85.8201 15.2627 87.0007 13.625 88.9558 13.625C90.8982 13.625 92.0789 15.25 92.0789 18.0049C92.0789 20.7852 90.9109 22.3848 88.9558 22.3848ZM98.5728 7.91211V11.0225H96.6812V13.8281H98.5728V21.2295C98.5728 23.959 99.8423 25.0508 103.08 25.0508C103.829 25.0508 104.489 24.9746 104.87 24.8984V22.1562C104.641 22.1943 104.273 22.2197 103.943 22.2197C102.813 22.2197 102.28 21.6992 102.28 20.6201V13.8281H104.87V11.0225H102.28V7.91211H98.5728ZM112.773 13.5488C114.487 13.5488 115.68 14.7422 115.743 16.5703H109.713C109.84 14.7803 111.084 13.5488 112.773 13.5488ZM115.794 20.7344C115.439 21.8135 114.334 22.4736 112.938 22.4736C110.983 22.4736 109.675 21.1152 109.675 19.0967V18.8682H119.324V17.7256C119.324 13.4727 116.759 10.7812 112.735 10.7812C108.634 10.7812 106.019 13.625 106.019 18.0684C106.019 22.5117 108.621 25.2412 112.874 25.2412C116.277 25.2412 118.803 23.4385 119.209 20.7344H115.794ZM120.815 15.1357C120.815 17.1797 122.174 18.5381 124.802 19.1348L127.379 19.7188C128.648 20.0234 129.131 20.4043 129.131 21.1279C129.131 22.042 128.23 22.6133 126.757 22.6133C125.221 22.6133 124.269 21.9531 124.091 20.7725H120.473C120.663 23.4639 122.974 25.2412 126.655 25.2412C130.312 25.2412 132.813 23.4512 132.813 20.7344C132.813 18.6523 131.695 17.5732 128.89 16.9385L126.262 16.3672C125.005 16.0752 124.396 15.6055 124.396 14.9072C124.396 14.0059 125.284 13.4092 126.617 13.4092C128.039 13.4092 128.966 14.1074 129.042 15.2119H132.47C132.419 12.5459 130.121 10.7812 126.668 10.7812C123.126 10.7812 120.815 12.5078 120.815 15.1357Z" fill="#0D3F67" fill-opacity="0.7"/>
    <defs>
        <clipPath id="clip0">
            <rect width="57" height="20" fill="white" transform="translate(0 6)"/>
        </clipPath>
    </defs>
</svg>
